# xmcd
#
# Track frame offsets:
#	150
#	12607
#	28764
#	40326
#	57225
#	70379
#	84996
#	98223
#	114549
#	124182
#	138463
#	155632
#	166105
#	183124
#	192155
#
# Disc length: 2809 seconds
#
# Revision: 1
# Processed by: cddbd v1.5.2PL0 Copyright (c) Steve Scherf et al.
# Submitted via: audiograbber 1.83.01
#
DISCID=cb0af70f
DTITLE=Riders - Wanted!-Live On Stage
DYEAR=2010
DGENRE=Country
TTITLE0=High Horse
TTITLE1=If You're Gonna Play In Texas
TTITLE2=Battle Of New Orleans
TTITLE3=Cherokee Fiddle
TTITLE4=Orange Blossom Special
TTITLE5=Fiddlin' Man
TTITLE6=Okie From Muskogee
TTITLE7=Livin' On Love
TTITLE8=Bad Moon Rising
TTITLE9=Mud On The Tires
TTITLE10=Gone Country
TTITLE11=Callin' Baton Rouge
TTITLE12=Luckenbach, Texas
TTITLE13=Rocky Top
TTITLE14=Green, Green Gras Of Home
EXTD=
EXTT0=
EXTT1=
EXTT2=
EXTT3=
EXTT4=
EXTT5=
EXTT6=
EXTT7=
EXTT8=
EXTT9=
EXTT10=
EXTT11=
EXTT12=
EXTT13=
EXTT14=
PLAYORDER=
